<svg xmlns="http://www.w3.org/2000/svg" width="92" height="94" viewBox="0 0 92 94" fill="none"><path d="M90.1049 71.4778C92.358 66.1946 92.1249 60.1346 90.4156 54.696C89.6387 52.2098 88.551 49.7237 87.541 47.2375C85.9094 47.1598 84.2002 47.0821 82.5686 46.849C74.4885 45.6836 67.263 41.7989 60.426 37.215C61.1253 39.4681 61.6691 41.7989 62.213 44.052C64.1553 52.0545 66.0976 60.0569 68.04 68.0593C69.2831 73.2647 70.6039 78.6256 73.6339 83.1318C75.3431 82.9764 76.9747 82.6656 78.6063 82.1218C83.6563 80.4125 88.0072 76.4502 90.1049 71.4778Z" fill="#FC5C46"></path><path d="M56.9297 69.2247C53.3558 66.7386 49.1604 65.5732 45.198 64.0193C41.2357 62.4654 37.1956 60.2123 34.9425 56.5607C33.0779 53.453 32.7671 49.7237 32.1456 46.1498C31.524 42.5759 30.3586 38.8467 27.4063 36.7489C23.677 34.0297 18.3938 35.0397 14.4315 37.2928C10.4691 39.6236 7.28369 43.0421 3.39903 45.5283C2.62209 46.0721 1.76747 46.5383 0.912842 47.0044C0.990535 49.1022 1.37901 51.1222 2.15594 53.0645C2.31133 53.3753 2.38902 53.6861 2.54441 53.9968C5.26367 53.7638 8.06063 53.6084 10.7799 54.1522C13.9653 54.7738 17.1508 56.483 18.7046 59.3577C20.2585 62.1546 20.6469 66.2724 23.677 67.2047C26.3186 68.0593 29.2709 65.6508 31.9125 66.5055C33.544 66.9716 34.6317 68.5255 35.0979 70.1571C35.5641 71.7886 35.4864 73.4979 35.5641 75.2071C35.7195 78.1595 36.341 81.1118 37.351 83.9088C42.168 82.1995 47.2958 81.4226 52.4235 81.578C55.5312 81.6557 58.7167 82.1218 61.8244 82.588C62.2129 81.8111 62.446 81.0341 62.6013 80.1795C63.3006 75.8287 60.5036 71.7109 56.9297 69.2247Z" fill="#FF7D60"></path><path d="M35.0979 70.157C34.6318 68.5255 33.5441 66.9716 31.9125 66.5054C29.1932 65.7285 26.3186 68.0593 23.677 67.2047C20.647 66.2723 20.2585 62.1546 18.7046 59.3576C17.1508 56.483 13.9653 54.7737 10.7799 54.1522C8.06065 53.6083 5.34139 53.7637 2.54443 53.9968C4.56446 58.7361 7.12834 63.3977 7.43912 68.5255C7.67219 72.4878 6.58449 76.2948 6.27372 80.2571C5.96294 84.2195 6.66217 88.5703 9.61452 91.1342C12.6446 93.6981 17.2285 93.6981 20.9577 92.2996C24.687 90.9011 27.9501 88.4926 31.4463 86.5503C33.3887 85.4626 35.331 84.608 37.4287 83.831C36.4187 81.0341 35.7972 78.0817 35.6418 75.1294C35.5641 73.4978 35.5641 71.7886 35.0979 70.157Z" fill="#FC5C46"></path><path d="M62.2129 44.1297C61.6691 41.8766 61.1252 39.5458 60.426 37.2927C56.3859 34.6511 52.5012 31.6988 48.6166 28.9795C37.9726 21.5987 25.3086 14.8393 12.6446 17.7917C9.9253 18.4132 7.36141 19.4232 4.95292 20.744C4.87522 20.9771 4.87523 21.2879 4.79753 21.521C3.86521 26.6487 2.9329 31.6988 2.00058 36.8266C1.37903 40.4004 0.835179 43.819 0.990566 47.0821C1.84519 46.6159 2.69982 46.1498 3.47675 45.6059C7.28372 43.1197 10.5468 39.6235 14.5092 37.3704C18.4716 35.0396 23.7547 34.1073 27.484 36.8266C30.4363 38.9243 31.6017 42.7312 32.2233 46.2274C32.8448 49.8013 33.1556 53.5306 35.0202 56.6384C37.1957 60.3676 41.2357 62.543 45.2758 64.0969C49.2381 65.6508 53.5112 66.8939 57.0074 69.3024C60.5813 71.7886 63.3783 75.9063 62.6791 80.1794C62.5237 81.0341 62.2906 81.8887 61.9021 82.5879C65.8645 83.1318 69.7492 83.5979 73.6338 83.2095C70.6815 78.7033 69.3607 73.3424 68.0399 68.137C66.0976 60.1346 64.1552 52.1321 62.2129 44.1297Z" fill="#FC5C46"></path><path d="M87.4632 23.9295C86.8417 24.0072 86.1424 24.0072 85.5209 24.0072C81.6362 23.9295 77.9069 22.7641 74.333 21.3656C64.1552 17.481 54.7543 11.8871 44.8096 7.22546C42.168 5.98236 39.5264 4.81696 36.8071 3.80695C32.534 2.95233 28.2609 2.48617 23.9877 2.87463C17.1507 3.57387 10.236 6.99238 7.1283 13.2078C5.9629 15.5386 5.41904 18.1025 4.95288 20.7441C7.36137 19.4233 9.92526 18.4133 12.6445 17.7918C25.2308 14.9171 37.9726 21.5987 48.6165 28.9796C59.2605 36.3605 69.8268 45.0621 82.6462 46.9267C84.2778 47.1598 85.987 47.3152 87.6186 47.3152C85.6763 42.7313 83.967 38.1474 84.5885 33.3304C84.977 30.145 86.3755 27.0373 87.4632 23.9295Z" fill="#FF393E"></path><path d="M74.2553 21.3656C77.8292 22.7641 81.6362 23.9295 85.4431 24.0072C86.0647 24.0072 86.7639 24.0072 87.3855 23.9295C88.5509 20.511 89.4055 17.2479 87.9293 13.9848C86.2201 10.0224 81.6362 8.15777 77.2853 7.847C73.0122 7.61392 68.7391 8.62393 64.4659 8.85701C57.6289 9.16779 50.8696 7.30315 44.188 5.59389C41.7018 4.97235 39.2156 4.27311 36.6517 3.80695C39.371 4.81696 42.0126 5.98236 44.6541 7.22545C54.6766 11.8871 64.0775 17.481 74.2553 21.3656Z" fill="#ED3237"></path><path d="M61.669 5.59392C63.2137 5.59392 64.466 4.34168 64.466 2.79696C64.466 1.25224 63.2137 0 61.669 0C60.1243 0 58.8721 1.25224 58.8721 2.79696C58.8721 4.34168 60.1243 5.59392 61.669 5.59392Z" fill="#ED3237"></path><path d="M51.1026 82.7434V54.1523H60.6589L62.0574 43.0421H51.0249V35.8944C51.0249 32.7089 51.9572 30.4558 56.5411 30.4558H62.4458V20.5111C61.4358 20.3557 57.9396 20.0449 53.8219 20.0449C45.3533 20.0449 39.5263 25.2504 39.5263 34.729V42.9645H29.8923V54.0746H39.5263V82.6657H51.1026V82.7434Z" fill="white"></path></svg>