<svg xmlns="http://www.w3.org/2000/svg" width="91" height="94" viewBox="0 0 91 94" fill="none"><path d="M89.3483 71.4778C91.6014 66.1946 91.3683 60.1346 89.659 54.696C88.8821 52.2098 87.7944 49.7237 86.7844 47.2375C85.1528 47.1598 83.4436 47.0821 81.812 46.849C73.7319 45.6836 66.5064 41.7989 59.6694 37.215C60.3687 39.4681 60.9125 41.7989 61.4564 44.052C63.3987 52.0545 65.341 60.0569 67.2834 68.0593C68.5265 73.2647 69.8473 78.6256 72.8773 83.1318C74.5866 82.9764 76.2181 82.6656 77.8497 82.1218C82.8997 80.4125 87.2506 76.4502 89.3483 71.4778Z" fill="#FC5C46"></path><path d="M56.1731 69.2247C52.5993 66.7386 48.4038 65.5732 44.4414 64.0193C40.4791 62.4654 36.439 60.2123 34.1859 56.5607C32.3213 53.453 32.0105 49.7237 31.389 46.1498C30.7674 42.5759 29.602 38.8467 26.6497 36.7489C22.9204 34.0297 17.6373 35.0397 13.6749 37.2928C9.71254 39.6236 6.5271 43.0421 2.64243 45.5283C1.8655 46.0721 1.01088 46.5383 0.15625 47.0044C0.233943 49.1022 0.622415 51.1222 1.39935 53.0645C1.55473 53.3753 1.63243 53.6861 1.78781 53.9968C4.50708 53.7638 7.30403 53.6084 10.0233 54.1522C13.2087 54.7738 16.3942 56.483 17.948 59.3577C19.5019 62.1546 19.8904 66.2724 22.9204 67.2047C25.562 68.0593 28.5143 65.6508 31.1559 66.5055C32.7875 66.9716 33.8752 68.5255 34.3413 70.1571C34.8075 71.7886 34.7298 73.4979 34.8075 75.2071C34.9629 78.1595 35.5844 81.1118 36.5944 83.9088C41.4114 82.1995 46.5392 81.4226 51.6669 81.578C54.7747 81.6557 57.9601 82.1218 61.0678 82.588C61.4563 81.8111 61.6894 81.0341 61.8448 80.1795C62.544 75.8287 59.747 71.7109 56.1731 69.2247Z" fill="#FF7D60"></path><path d="M34.3413 70.157C33.8752 68.5255 32.7875 66.9716 31.1559 66.5054C28.4367 65.7285 25.562 68.0593 22.9204 67.2047C19.8904 66.2723 19.5019 62.1546 17.9481 59.3576C16.3942 56.483 13.2088 54.7737 10.0233 54.1522C7.30406 53.6083 4.5848 53.7637 1.78784 53.9968C3.80787 58.7361 6.37175 63.3977 6.68252 68.5255C6.9156 72.4878 5.8279 76.2948 5.51712 80.2571C5.20635 84.2195 5.90558 88.5703 8.85793 91.1342C11.888 93.6981 16.4719 93.6981 20.2012 92.2996C23.9304 90.9011 27.1936 88.4926 30.6898 86.5503C32.6321 85.4626 34.5744 84.608 36.6721 83.831C35.6621 81.0341 35.0406 78.0817 34.8852 75.1294C34.8075 73.4978 34.8075 71.7886 34.3413 70.157Z" fill="#FF9776"></path><path d="M61.4563 44.1297C60.9125 41.8766 60.3686 39.5458 59.6694 37.2927C55.6293 34.6511 51.7446 31.6988 47.86 28.9795C37.216 21.5987 24.552 14.8393 11.888 17.7917C9.16871 18.4132 6.60482 19.4232 4.19633 20.744C4.11863 20.9771 4.11864 21.2879 4.04094 21.521C3.10862 26.6487 2.17631 31.6988 1.24399 36.8266C0.622443 40.4004 0.0785872 43.819 0.233974 47.0821C1.0886 46.6159 1.94322 46.1498 2.72016 45.6059C6.52713 43.1197 9.79025 39.6235 13.7526 37.3704C17.715 35.0396 22.9981 34.1073 26.7274 36.8266C29.6797 38.9243 30.8451 42.7312 31.4667 46.2274C32.0882 49.8013 32.399 53.5306 34.2637 56.6384C36.4391 60.3676 40.4791 62.543 44.5192 64.0969C48.4815 65.6508 52.7547 66.8939 56.2509 69.3024C59.8247 71.7886 62.6217 75.9063 61.9225 80.1794C61.7671 81.0341 61.534 81.8887 61.1455 82.5879C65.1079 83.1318 68.9926 83.5979 72.8772 83.2095C69.9249 78.7033 68.6041 73.3424 67.2833 68.137C65.341 60.1346 63.3987 52.1321 61.4563 44.1297Z" fill="#FC5C46"></path><path d="M86.7066 23.9295C86.0851 24.0072 85.3858 24.0072 84.7643 24.0072C80.8796 23.9295 77.1503 22.7641 73.5764 21.3656C63.3986 17.481 53.9977 11.8871 44.053 7.22546C41.4114 5.98236 38.7698 4.81696 36.0506 3.80695C31.7774 2.95233 27.5043 2.48617 23.2312 2.87463C16.3941 3.57387 9.47944 6.99238 6.3717 13.2078C5.2063 15.5386 4.66245 18.1025 4.19629 20.7441C6.60478 19.4233 9.16867 18.4133 11.8879 17.7918C24.4743 14.9171 37.216 21.5987 47.8599 28.9796C58.5039 36.3605 69.0702 45.0621 81.8896 46.9267C83.5212 47.1598 85.2304 47.3152 86.862 47.3152C84.9197 42.7313 83.2104 38.1474 83.8319 33.3304C84.2204 30.145 85.6189 27.0373 86.7066 23.9295Z" fill="#FF393E"></path><path d="M73.4987 21.3656C77.0726 22.7641 80.8796 23.9295 84.6866 24.0072C85.3081 24.0072 86.0073 24.0072 86.6289 23.9295C87.7943 20.511 88.6489 17.2479 87.1727 13.9848C85.4635 10.0224 80.8796 8.15777 76.5288 7.847C72.2556 7.61392 67.9825 8.62393 63.7094 8.85701C56.8723 9.16779 50.113 7.30315 43.4314 5.59389C40.9452 4.97235 38.459 4.27311 35.8951 3.80695C38.6144 4.81696 41.256 5.98236 43.8976 7.22545C53.92 11.8871 63.3209 17.481 73.4987 21.3656Z" fill="#ED3237"></path><path d="M60.9124 5.59392C62.4571 5.59392 63.7094 4.34168 63.7094 2.79696C63.7094 1.25224 62.4571 0 60.9124 0C59.3677 0 58.1155 1.25224 58.1155 2.79696C58.1155 4.34168 59.3677 5.59392 60.9124 5.59392Z" fill="#ED3237"></path><path d="M57.3386 73.964H33.6421C23.1535 73.964 14.5295 65.4178 14.5295 54.8515V33.952C14.5295 23.4634 23.0758 14.8394 33.6421 14.8394H57.3386C67.8272 14.8394 76.4511 23.3857 76.4511 33.952V54.8515C76.3734 65.3401 67.8272 73.964 57.3386 73.964ZM33.6421 19.1125C25.4066 19.1125 18.8027 25.7942 18.8027 33.952V54.8515C18.8027 63.0093 25.4843 69.6909 33.6421 69.6909H57.3386C65.4964 69.6909 72.178 63.0093 72.178 54.8515V33.952C72.178 25.7942 65.4964 19.1125 57.3386 19.1125H33.6421Z" fill="white"></path><path d="M45.4515 61.3777C36.0506 61.3777 28.4366 53.7638 28.4366 44.3629C28.4366 34.962 36.0506 27.348 45.4515 27.348C54.8524 27.348 62.4663 34.962 62.4663 44.3629C62.4663 53.7638 54.8524 61.3777 45.4515 61.3777ZM45.4515 31.6989C38.4591 31.6989 32.7098 37.4482 32.7098 44.4406C32.7098 51.433 38.4591 57.1823 45.4515 57.1823C52.4439 57.1823 58.1932 51.433 58.1932 44.4406C58.1932 37.3705 52.5216 31.6989 45.4515 31.6989Z" fill="white"></path><path d="M62.1555 31.4658C64.0864 31.4658 65.6517 29.9005 65.6517 27.9696C65.6517 26.0387 64.0864 24.4734 62.1555 24.4734C60.2246 24.4734 58.6593 26.0387 58.6593 27.9696C58.6593 29.9005 60.2246 31.4658 62.1555 31.4658Z" fill="white"></path></svg>