<svg xmlns="http://www.w3.org/2000/svg" width="91" height="94" viewBox="0 0 91 94" fill="none"><path d="M89.3585 71.4778C91.6116 66.1946 91.3786 60.1346 89.6693 54.696C88.8924 52.2098 87.8047 49.7237 86.7947 47.2375C85.1631 47.1598 83.4538 47.0821 81.8223 46.849C73.7422 45.6836 66.5167 41.7989 59.6797 37.215C60.3789 39.4681 60.9228 41.7989 61.4666 44.052C63.409 52.0545 65.3513 60.0569 67.2936 68.0593C68.5367 73.2647 69.8575 78.6256 72.8876 83.1318C74.5968 82.9764 76.2284 82.6656 77.8599 82.1218C82.91 80.4125 87.2608 76.4502 89.3585 71.4778Z" fill="#FC5C46"></path><path d="M56.1834 69.2247C52.6095 66.7386 48.4141 65.5732 44.4517 64.0193C40.4893 62.4654 36.4493 60.2123 34.1962 56.5607C32.3315 53.453 32.0208 49.7237 31.3992 46.1498C30.7777 42.5759 29.6123 38.8467 26.6599 36.7489C22.9307 34.0297 17.6475 35.0397 13.6851 37.2928C9.72279 39.6236 6.53735 43.0421 2.65269 45.5283C1.87575 46.0721 1.02113 46.5383 0.166504 47.0044C0.244197 49.1022 0.632669 51.1222 1.4096 53.0645C1.56499 53.3753 1.64268 53.6861 1.79807 53.9968C4.51733 53.7638 7.31429 53.6084 10.0336 54.1522C13.219 54.7738 16.4044 56.483 17.9583 59.3577C19.5121 62.1546 19.9006 66.2724 22.9307 67.2047C25.5722 68.0593 28.5246 65.6508 31.1661 66.5055C32.7977 66.9716 33.8854 68.5255 34.3516 70.1571C34.8177 71.7886 34.74 73.4979 34.8177 75.2071C34.9731 78.1595 35.5947 81.1118 36.6047 83.9088C41.4217 82.1995 46.5494 81.4226 51.6772 81.578C54.7849 81.6557 57.9703 82.1218 61.0781 82.588C61.4665 81.8111 61.6996 81.0341 61.855 80.1795C62.5543 75.8287 59.7573 71.7109 56.1834 69.2247Z" fill="#FF7D60"></path><path d="M34.3516 70.157C33.8854 68.5255 32.7977 66.9716 31.1662 66.5054C28.4469 65.7285 25.5722 68.0593 22.9307 67.2047C19.9006 66.2723 19.5122 62.1546 17.9583 59.3576C16.4044 56.483 13.219 54.7737 10.0336 54.1522C7.31431 53.6083 4.59506 53.7637 1.7981 53.9968C3.81812 58.7361 6.382 63.3977 6.69278 68.5255C6.92586 72.4878 5.83815 76.2948 5.52738 80.2571C5.2166 84.2195 5.91583 88.5703 8.86818 91.1342C11.8982 93.6981 16.4821 93.6981 20.2114 92.2996C23.9407 90.9011 27.2038 88.4926 30.7 86.5503C32.6423 85.4626 34.5847 84.608 36.6824 83.831C35.6724 81.0341 35.0508 78.0817 34.8954 75.1294C34.8177 73.4978 34.8178 71.7886 34.3516 70.157Z" fill="#FF9776"></path><path d="M61.4666 44.1297C60.9227 41.8766 60.3789 39.5458 59.6796 37.2927C55.6396 34.6511 51.7549 31.6988 47.8702 28.9795C37.2263 21.5987 24.5622 14.8393 11.8982 17.7917C9.17896 18.4132 6.61507 19.4232 4.20658 20.744C4.12889 20.9771 4.12889 21.2879 4.0512 21.521C3.11888 26.6487 2.18656 31.6988 1.25424 36.8266C0.632697 40.4004 0.0888411 43.819 0.244228 47.0821C1.09885 46.6159 1.95348 46.1498 2.73041 45.6059C6.53738 43.1197 9.8005 39.6235 13.7629 37.3704C17.7252 35.0396 23.0084 34.1073 26.7376 36.8266C29.69 38.9243 30.8554 42.7312 31.4769 46.2274C32.0985 49.8013 32.4093 53.5306 34.2739 56.6384C36.4493 60.3676 40.4894 62.543 44.5294 64.0969C48.4918 65.6508 52.7649 66.8939 56.2611 69.3024C59.835 71.7886 62.632 75.9063 61.9327 80.1794C61.7773 81.0341 61.5443 81.8887 61.1558 82.5879C65.1181 83.1318 69.0028 83.5979 72.8875 83.2095C69.9351 78.7033 68.6144 73.3424 67.2936 68.137C65.3512 60.1346 63.4089 52.1321 61.4666 44.1297Z" fill="#FC5C46"></path><path d="M86.7169 23.9295C86.0953 24.0072 85.3961 24.0072 84.7745 24.0072C80.8899 23.9295 77.1606 22.7641 73.5867 21.3656C63.4089 17.481 54.008 11.8871 44.0632 7.22546C41.4216 5.98236 38.7801 4.81696 36.0608 3.80695C31.7877 2.95233 27.5145 2.48617 23.2414 2.87463C16.4044 3.57387 9.48969 6.99238 6.38196 13.2078C5.21656 15.5386 4.6727 18.1025 4.20654 20.7441C6.61504 19.4233 9.17892 18.4133 11.8982 17.7918C24.4845 14.9171 37.2262 21.5987 47.8702 28.9796C58.5142 36.3605 69.0805 45.0621 81.8999 46.9267C83.5314 47.1598 85.2407 47.3152 86.8722 47.3152C84.9299 42.7313 83.2207 38.1474 83.8422 33.3304C84.2307 30.145 85.6292 27.0373 86.7169 23.9295Z" fill="#FF393E"></path><path d="M73.509 21.3656C77.0829 22.7641 80.8898 23.9295 84.6968 24.0072C85.3184 24.0072 86.0176 24.0072 86.6391 23.9295C87.8045 20.511 88.6592 17.2479 87.183 13.9848C85.4737 10.0224 80.8898 8.15777 76.539 7.847C72.2659 7.61392 67.9927 8.62393 63.7196 8.85701C56.8826 9.16779 50.1233 7.30315 43.4416 5.59389C40.9555 4.97235 38.4693 4.27311 35.9054 3.80695C38.6247 4.81696 41.2662 5.98236 43.9078 7.22545C53.9302 11.8871 63.3311 17.481 73.509 21.3656Z" fill="#ED3237"></path><path d="M60.9227 5.59392C62.4674 5.59392 63.7196 4.34168 63.7196 2.79696C63.7196 1.25224 62.4674 0 60.9227 0C59.378 0 58.1257 1.25224 58.1257 2.79696C58.1257 4.34168 59.378 5.59392 60.9227 5.59392Z" fill="#ED3237"></path><path d="M32.1253 31.8542H22.6467V61.9216H32.1253V31.8542Z" fill="white"></path><path d="M27.386 27.7365C30.4325 27.7365 32.9022 25.2668 32.9022 22.2203C32.9022 19.1737 30.4325 16.704 27.386 16.704C24.3394 16.704 21.8698 19.1737 21.8698 22.2203C21.8698 25.2668 24.3394 27.7365 27.386 27.7365Z" fill="white"></path><path fill-rule="evenodd" clip-rule="evenodd" d="M57.8418 30.7665C51.3932 30.7665 48.674 34.1074 47.8971 35.3504V31.8542H38.4185V61.9216H47.8971V44.2075C47.8971 44.2075 48.7517 38.9243 53.1802 38.9243C57.6087 38.9243 58.3857 43.7413 58.3857 45.1398V62.077H67.8642V44.2075C67.8642 38.4582 65.6888 30.7665 57.8418 30.7665Z" fill="white"></path></svg>