<svg xmlns="http://www.w3.org/2000/svg" width="91" height="94" viewBox="0 0 91 94" fill="none"><path d="M89.2304 71.4778C91.4835 66.1946 91.2504 60.1346 89.5411 54.696C88.7642 52.2098 87.6765 49.7237 86.6665 47.2375C85.0349 47.1598 83.3257 47.0821 81.6941 46.849C73.614 45.6836 66.3885 41.7989 59.5515 37.215C60.2508 39.4681 60.7946 41.7989 61.3385 44.052C63.2808 52.0545 65.2231 60.0569 67.1655 68.0593C68.4086 73.2647 69.7293 78.6256 72.7594 83.1318C74.4686 82.9764 76.1002 82.6656 77.7317 82.1218C82.7818 80.4125 87.1326 76.4502 89.2304 71.4778Z" fill="#FC5C46"></path><path d="M56.0552 69.2247C52.4813 66.7386 48.2859 65.5732 44.3235 64.0193C40.3612 62.4654 36.3211 60.2123 34.068 56.5607C32.2034 53.453 31.8926 49.7237 31.271 46.1498C30.6495 42.5759 29.4841 38.8467 26.5318 36.7489C22.8025 34.0297 17.5193 35.0397 13.557 37.2928C9.59462 39.6236 6.40918 43.0421 2.52451 45.5283C1.74758 46.0721 0.892957 46.5383 0.0383301 47.0044C0.116023 49.1022 0.504495 51.1222 1.28143 53.0645C1.43681 53.3753 1.51451 53.6861 1.66989 53.9968C4.38916 53.7638 7.18611 53.6084 9.90538 54.1522C13.0908 54.7738 16.2762 56.483 17.8301 59.3577C19.384 62.1546 19.7724 66.2724 22.8025 67.2047C25.444 68.0593 28.3964 65.6508 31.038 66.5055C32.6695 66.9716 33.7572 68.5255 34.2234 70.1571C34.6896 71.7886 34.6119 73.4979 34.6896 75.2071C34.8449 78.1595 35.4665 81.1118 36.4765 83.9088C41.2935 82.1995 46.4212 81.4226 51.549 81.578C54.6567 81.6557 57.8422 82.1218 60.9499 82.588C61.3384 81.8111 61.5714 81.0341 61.7268 80.1795C62.4261 75.8287 59.6291 71.7109 56.0552 69.2247Z" fill="#FF7D60"></path><path d="M34.2234 70.157C33.7573 68.5255 32.6696 66.9716 31.038 66.5054C28.3187 65.7285 25.4441 68.0593 22.8025 67.2047C19.7725 66.2723 19.384 62.1546 17.8301 59.3576C16.2763 56.483 13.0908 54.7737 9.90541 54.1522C7.18614 53.6083 4.46688 53.7637 1.66992 53.9968C3.68995 58.7361 6.25383 63.3977 6.5646 68.5255C6.79768 72.4878 5.70998 76.2948 5.3992 80.2571C5.08843 84.2195 5.78766 88.5703 8.74001 91.1342C11.77 93.6981 16.354 93.6981 20.0832 92.2996C23.8125 90.9011 27.0756 88.4926 30.5718 86.5503C32.5142 85.4626 34.4565 84.608 36.5542 83.831C35.5442 81.0341 34.9227 78.0817 34.7673 75.1294C34.6896 73.4978 34.6896 71.7886 34.2234 70.157Z" fill="#FF9776"></path><path d="M61.3384 44.1297C60.7945 41.8766 60.2507 39.5458 59.5514 37.2927C55.5114 34.6511 51.6267 31.6988 47.7421 28.9795C37.0981 21.5987 24.4341 14.8393 11.7701 17.7917C9.05079 18.4132 6.4869 19.4232 4.07841 20.744C4.00071 20.9771 4.00072 21.2879 3.92302 21.521C2.9907 26.6487 2.05839 31.6988 1.12607 36.8266C0.504523 40.4004 -0.0393327 43.819 0.116054 47.0821C0.97068 46.6159 1.8253 46.1498 2.60224 45.6059C6.40921 43.1197 9.67233 39.6235 13.6347 37.3704C17.597 35.0396 22.8802 34.1073 26.6095 36.8266C29.5618 38.9243 30.7272 42.7312 31.3488 46.2274C31.9703 49.8013 32.2811 53.5306 34.1457 56.6384C36.3211 60.3676 40.3612 62.543 44.4012 64.0969C48.3636 65.6508 52.6367 66.8939 56.1329 69.3024C59.7068 71.7886 62.5038 75.9063 61.8046 80.1794C61.6492 81.0341 61.4161 81.8887 61.0276 82.5879C64.99 83.1318 68.8746 83.5979 72.7593 83.2095C69.807 78.7033 68.4862 73.3424 67.1654 68.137C65.2231 60.1346 63.2807 52.1321 61.3384 44.1297Z" fill="#FC5C46"></path><path d="M86.5887 23.9295C85.9671 24.0072 85.2679 24.0072 84.6464 24.0072C80.7617 23.9295 77.0324 22.7641 73.4585 21.3656C63.2807 17.481 53.8798 11.8871 43.935 7.22546C41.2935 5.98236 38.6519 4.81696 35.9326 3.80695C31.6595 2.95233 27.3864 2.48617 23.1132 2.87463C16.2762 3.57387 9.36152 6.99238 6.25378 13.2078C5.08838 15.5386 4.54453 18.1025 4.07837 20.7441C6.48686 19.4233 9.05075 18.4133 11.77 17.7918C24.3563 14.9171 37.098 21.5987 47.742 28.9796C58.386 36.3605 68.9523 45.0621 81.7717 46.9267C83.4033 47.1598 85.1125 47.3152 86.7441 47.3152C84.8017 42.7313 83.0925 38.1474 83.714 33.3304C84.1025 30.145 85.501 27.0373 86.5887 23.9295Z" fill="#FF393E"></path><path d="M73.3808 21.3656C76.9547 22.7641 80.7617 23.9295 84.5686 24.0072C85.1902 24.0072 85.8894 24.0072 86.511 23.9295C87.6764 20.511 88.531 17.2479 87.0548 13.9848C85.3456 10.0224 80.7617 8.15777 76.4108 7.847C72.1377 7.61392 67.8646 8.62393 63.5914 8.85701C56.7544 9.16779 49.9951 7.30315 43.3135 5.59389C40.8273 4.97235 38.3411 4.27311 35.7772 3.80695C38.4965 4.81696 41.1381 5.98236 43.7796 7.22545C53.8021 11.8871 63.203 17.481 73.3808 21.3656Z" fill="#ED3237"></path><path d="M60.7945 5.59392C62.3392 5.59392 63.5915 4.34168 63.5915 2.79696C63.5915 1.25224 62.3392 0 60.7945 0C59.2498 0 57.9976 1.25224 57.9976 2.79696C57.9976 4.34168 59.2498 5.59392 60.7945 5.59392Z" fill="#ED3237"></path><path d="M67.5613 30.145C66.3959 30.4558 65.5413 30.3781 65.5413 30.3781V30.145C66.629 29.2904 69.2705 26.7265 69.5813 25.4834C69.7367 24.9396 69.5813 24.7842 69.5813 24.7842L66.1628 26.2604L63.3658 27.5035C61.4235 25.4057 58.4712 24.085 55.1303 24.085C49.2257 24.085 44.4864 28.2804 44.4864 33.4082C44.4864 34.3405 44.6417 36.0497 44.9525 36.9044C44.9525 37.1374 44.9525 36.6713 44.9525 36.9044C41.1455 36.8267 36.3286 35.2728 31.9777 33.0197C23.4315 28.6689 22.8876 25.7165 22.8876 25.7165C21.5668 27.115 20.8676 31.8543 22.1884 35.5836C23.043 37.9144 26.073 40.0898 26.073 40.0898C26.073 40.0898 24.7523 40.0898 23.3538 39.6236C21.9553 39.1575 21.4114 38.6913 21.4114 38.6913C20.5568 40.7113 22.2661 44.3629 25.1407 46.9268C26.85 48.4807 29.88 49.413 29.88 49.413L25.063 49.5684C24.8299 54.23 34.8524 57.0269 34.8524 57.0269C31.9 59.28 28.4815 60.6785 24.8299 60.6785C22.9653 60.6785 21.1007 60.3677 19.3137 59.9016C24.1307 63.8639 30.4239 66.6609 37.1832 66.2724C55.1303 65.3401 65.3082 49.8791 65.7743 34.7289C65.7743 34.7289 66.629 34.3405 68.4159 32.4758C70.2029 30.6889 71.3682 28.5912 71.3682 28.5912C71.3682 28.5912 68.7267 29.8343 67.5613 30.145Z" fill="white"></path><path d="M69.5813 24.7842C69.659 25.095 69.5813 24.8619 69.5813 24.7842V24.7842Z" fill="white"></path></svg>